<svg width="42" height="42" viewBox="0 0 42 42" fill="none" xmlns="http://www.w3.org/2000/svg">
<rect width="42" height="42" rx="21" fill="#121212"/>
<g opacity="0.96">
<path fill-rule="evenodd" clip-rule="evenodd" d="M22.7187 25.125C23.8578 25.125 24.7812 26.0484 24.7812 27.1875C24.7812 28.3266 23.8578 29.25 22.7187 29.25C21.5797 29.25 20.6562 28.3266 20.6562 27.1875C20.6562 26.0484 21.5797 25.125 22.7187 25.125ZM15.8438 19.9688C17.5524 19.9688 18.9375 21.3539 18.9375 23.0625C18.9375 24.7711 17.5524 26.1562 15.8438 26.1562C14.1351 26.1562 12.75 24.7711 12.75 23.0625C12.75 21.3539 14.1351 19.9688 15.8438 19.9688ZM24.6094 12.75C27.1723 12.75 29.25 14.8277 29.25 17.3906C29.25 19.9536 27.1723 22.0312 24.6094 22.0312C22.0464 22.0312 19.9688 19.9536 19.9688 17.3906C19.9688 14.8277 22.0464 12.75 24.6094 12.75Z" fill="url(#paint0_radial_2_1224)"/>
</g>
<defs>
<radialGradient id="paint0_radial_2_1224" cx="0" cy="0" r="1" gradientUnits="userSpaceOnUse" gradientTransform="translate(21 21) scale(16.8591)">
<stop stop-color="#FFDB00"/>
<stop offset="1" stop-color="#F5B42E"/>
</radialGradient>
</defs>
</svg>
